<svg version="1.1" xmlns="http://www.w3.org/2000/svg" xmlns:xlink="http://www.w3.org/1999/xlink" viewBox="0 0 172 172"><g fill="none" fill-rule="nonzero" stroke="none" stroke-width="1" stroke-linecap="butt" stroke-linejoin="miter" stroke-miterlimit="10" stroke-dasharray="" stroke-dashoffset="0" font-family="none" font-weight="none" font-size="none" text-anchor="none" style="mix-blend-mode: normal"><path d="M0,172v-172h172v172z" fill="none"></path><g fill="#ffffff"><path d="M145.125,18.8125l-88.6875,16.125l-3.46961,76.32605c-3.69063,-0.78113 -7.99779,-1.07605 -12.65539,-1.07605c-13.35956,0 -24.1875,4.49636 -24.1875,14.88623c0,10.38987 6.10869,22.73877 24.1875,22.73877c17.57202,0 23.81865,-13.86892 24.15601,-24.1875h0.03149l3.14417,-62.85706c37.68431,-5.48018 63.46069,-13.90991 63.46069,-13.90991l-1.70068,52.28027c-3.65756,-0.75625 -7.90463,-1.04456 -12.49793,-1.04456c-13.35956,0 -24.1875,4.49636 -24.1875,14.88623c0,10.38988 6.10869,22.73877 24.1875,22.73877c17.57202,0 23.81865,-13.86892 24.15601,-24.1875h0.03149z"></path></g></g></svg>