<svg version="1.1" xmlns="http://www.w3.org/2000/svg" xmlns:xlink="http://www.w3.org/1999/xlink" viewBox="0 0 172 172"><g transform="translate(5.16,5.16) scale(0.94,0.94)"><g fill="none" fill-rule="nonzero" stroke="none" stroke-width="none" stroke-linecap="butt" stroke-linejoin="none" stroke-miterlimit="10" stroke-dasharray="" stroke-dashoffset="0" font-family="none" font-weight="none" font-size="none" text-anchor="none" style="mix-blend-mode: normal"><g fill="#000000" stroke="#000000" stroke-width="11" stroke-linejoin="round"><path d="M25.08333,35.83333c0,-1.97902 1.60431,-3.58333 3.58333,-3.58333h114.66667c1.97902,0 3.58333,1.60431 3.58333,3.58333c0,1.97902 -1.60431,3.58333 -3.58333,3.58333h-114.66667c-1.97902,0 -3.58333,-1.60431 -3.58333,-3.58333zM25.08333,86c0,-1.97902 1.60431,-3.58333 3.58333,-3.58333h114.66667c1.97902,0 3.58333,1.60431 3.58333,3.58333c0,1.97902 -1.60431,3.58333 -3.58333,3.58333h-114.66667c-1.97902,0 -3.58333,-1.60431 -3.58333,-3.58333zM25.08333,136.16667c0,-1.97902 1.60431,-3.58333 3.58333,-3.58333h114.66667c1.97902,0 3.58333,1.60431 3.58333,3.58333c0,1.97902 -1.60431,3.58333 -3.58333,3.58333h-114.66667c-1.97902,0 -3.58333,-1.60431 -3.58333,-3.58333z"></path></g><path d="M0,172v-172h172v172z" fill="none" stroke="none" stroke-width="1" stroke-linejoin="miter"></path><g fill="#000000" stroke="none" stroke-width="1" stroke-linejoin="miter"><path d="M25.08333,35.83333c0,-1.97902 1.60431,-3.58333 3.58333,-3.58333h114.66667c1.97902,0 3.58333,1.60431 3.58333,3.58333c0,1.97902 -1.60431,3.58333 -3.58333,3.58333h-114.66667c-1.97902,0 -3.58333,-1.60431 -3.58333,-3.58333zM28.66667,89.58333h114.66667c1.97902,0 3.58333,-1.60431 3.58333,-3.58333c0,-1.97902 -1.60431,-3.58333 -3.58333,-3.58333h-114.66667c-1.97902,0 -3.58333,1.60431 -3.58333,3.58333c0,1.97902 1.60431,3.58333 3.58333,3.58333zM28.66667,139.75h114.66667c1.97902,0 3.58333,-1.60431 3.58333,-3.58333c0,-1.97902 -1.60431,-3.58333 -3.58333,-3.58333h-114.66667c-1.97902,0 -3.58333,1.60431 -3.58333,3.58333c0,1.97902 1.60431,3.58333 3.58333,3.58333z"></path></g><path d="" fill="none" stroke="none" stroke-width="1" stroke-linejoin="miter"></path></g></g></svg>